<mxfile host="app.diagrams.net" agent="Mozilla/5.0 (Macintosh; Intel Mac OS X 10_15_7) AppleWebKit/537.36 (KHTML, like Gecko) Chrome/133.0.0.0 Safari/537.36" version="27.0.5">
  <diagram name="Page-1" id="Y3-bYl_E_LaDHOjntGiM">
    <mxGraphModel dx="4057" dy="3189" grid="1" gridSize="10" guides="1" tooltips="1" connect="1" arrows="1" fold="1" page="1" pageScale="1" pageWidth="850" pageHeight="1100" math="0" shadow="0">
      <root>
        <mxCell id="0" />
        <mxCell id="1" parent="0" />
        <mxCell id="nMdRVuOJrsOOcRR4vwzS-20" value="speed (m/s)" style="text;html=1;align=center;verticalAlign=middle;whiteSpace=wrap;rounded=0;fontColor=light-dark(#000000,#EDEDED);fontSize=111;rotation=-90;" parent="1" vertex="1">
          <mxGeometry x="250" y="650" width="790" height="30" as="geometry" />
        </mxCell>
        <mxCell id="nMdRVuOJrsOOcRR4vwzS-21" value="absolute steering angle (degrees)" style="text;html=1;align=center;verticalAlign=middle;whiteSpace=wrap;rounded=0;fontColor=light-dark(#000000,#EDEDED);fontSize=111;" parent="1" vertex="1">
          <mxGeometry x="940" y="1380" width="1880" height="30" as="geometry" />
        </mxCell>
        <mxCell id="nMdRVuOJrsOOcRR4vwzS-32" value="" style="endArrow=none;html=1;rounded=0;strokeWidth=15;fontColor=light-dark(#FF0000,#FF0000);strokeColor=light-dark(#FF0000,#FF0000);" parent="1" edge="1">
          <mxGeometry width="50" height="50" relative="1" as="geometry">
            <mxPoint x="770.003102303321" y="650" as="sourcePoint" />
            <mxPoint x="1930" y="1090" as="targetPoint" />
          </mxGeometry>
        </mxCell>
        <mxCell id="nMdRVuOJrsOOcRR4vwzS-42" value="" style="endArrow=none;html=1;rounded=0;strokeWidth=15;fontColor=light-dark(#FF0000,#FF0000);strokeColor=light-dark(#FF0000,#FF0000);" parent="1" edge="1">
          <mxGeometry width="50" height="50" relative="1" as="geometry">
            <mxPoint x="1920.0031023033212" y="1088" as="sourcePoint" />
            <mxPoint x="2540" y="1088" as="targetPoint" />
          </mxGeometry>
        </mxCell>
        <mxCell id="nMdRVuOJrsOOcRR4vwzS-56" value="(0°, 5)" style="text;html=1;align=center;verticalAlign=middle;whiteSpace=wrap;rounded=0;fontColor=light-dark(#FF0000,#FF0000);fontSize=111;rotation=0;" parent="1" vertex="1">
          <mxGeometry x="560" y="550" width="790" height="30" as="geometry" />
        </mxCell>
        <mxCell id="nMdRVuOJrsOOcRR4vwzS-57" value="(15°, 2)" style="text;html=1;align=center;verticalAlign=middle;whiteSpace=wrap;rounded=0;fontColor=light-dark(#FF0000,#FF0000);fontSize=111;rotation=0;" parent="1" vertex="1">
          <mxGeometry x="1530" y="1150" width="790" height="30" as="geometry" />
        </mxCell>
        <mxCell id="nMdRVuOJrsOOcRR4vwzS-15" value="" style="endArrow=classic;html=1;rounded=0;strokeWidth=15;" parent="1" edge="1">
          <mxGeometry width="50" height="50" relative="1" as="geometry">
            <mxPoint x="770.913102303321" y="1300" as="sourcePoint" />
            <mxPoint x="770" y="-10" as="targetPoint" />
          </mxGeometry>
        </mxCell>
        <mxCell id="nMdRVuOJrsOOcRR4vwzS-24" value="" style="endArrow=classic;html=1;rounded=0;strokeWidth=15;" parent="1" edge="1">
          <mxGeometry width="50" height="50" relative="1" as="geometry">
            <mxPoint x="763.893102303321" y="1292.52" as="sourcePoint" />
            <mxPoint x="2960" y="1290" as="targetPoint" />
          </mxGeometry>
        </mxCell>
        <mxCell id="iXepMsfafrlwwKKqsX9Z-1" value="(20°, 2)" style="text;html=1;align=center;verticalAlign=middle;whiteSpace=wrap;rounded=0;fontColor=light-dark(#FF0000,#FF0000);fontSize=111;rotation=0;" vertex="1" parent="1">
          <mxGeometry x="2140" y="1150" width="790" height="30" as="geometry" />
        </mxCell>
      </root>
    </mxGraphModel>
  </diagram>
</mxfile>
